HIERARCHY
ROOT pelvis
{
  OFFSET 0 100 0
  CHANNELS 6 Xposition Yposition Zposition Zrotation Xrotation Yrotation
  JOINT pelvis_right_femur
  {
    OFFSET -10.78128 -3.44521 -0.5502486
    CHANNELS 3 Zrotation Xrotation Yrotation
    JOINT right_femur_tibia
    {
      OFFSET -0.8047443 -44.0398 -0.1307829
      CHANNELS 3 Zrotation Xrotation Yrotation
      JOINT right_tibia_foot
      {
        OFFSET 3.006224 -47.83518 -5
        CHANNELS 3 Zrotation Xrotation Yrotation
        End Site
        {
          OFFSET 0 -5 15
        }
      }
    }
  }
  JOINT pelvis_left_femur
  {
    OFFSET 10.78128 -3.44521 -0.5502486
    CHANNELS 3 Zrotation Xrotation Yrotation
    JOINT left_femur_tibia
    {
      OFFSET 0.8047443 -44.0398 -0.1307829
      CHANNELS 3 Zrotation Xrotation Yrotation
      JOINT left_tibia_foot
      {
        OFFSET -4.370144 -48.10324 -4.275266
        CHANNELS 3 Zrotation Xrotation Yrotation
        End Site
        {
          OFFSET 0 -5 15
        }
      }
    }
  }
  JOINT pelvis_spine1
  {
    OFFSET 0 6.468898 -3.129235
    CHANNELS 3 Zrotation Xrotation Yrotation
    JOINT spine1
    {
      OFFSET 0 23.15396 4.99043
      CHANNELS 3 Zrotation Xrotation Yrotation
      JOINT spine2
      {
        OFFSET 0 20.79997 -5.064912
        CHANNELS 3 Zrotation Xrotation Yrotation
        JOINT neck
        {
          OFFSET 0 14.38658 9.616178
          CHANNELS 3 Zrotation Xrotation Yrotation
          End Site
          {
            OFFSET 0 20 0
          }
        }
      }
      JOINT right_manubrium
      {
        OFFSET -5.722621 16.35077 3.967754
        CHANNELS 3 Zrotation Xrotation Yrotation
        JOINT right_clavicle
        {
          OFFSET -13.16364 1.694482 -4.693211
          CHANNELS 3 Zrotation Xrotation Yrotation
          JOINT right_humerus
          {
            OFFSET -28.5034 -0.3100689 -2.792744
            CHANNELS 3 Zrotation Xrotation Yrotation
            JOINT right_radius
            {
              OFFSET -25.15693 0.02248979 -1.271978
              CHANNELS 3 Zrotation Xrotation Yrotation
              End Site
              {
                OFFSET -15 0 0
              }
            }
          }
        }
      }
      JOINT left_manubrium
      {
        OFFSET 5.722621 16.35077 3.967754
        CHANNELS 3 Zrotation Xrotation Yrotation
        JOINT left_clavicle
        {
          OFFSET 13.16364 1.694482 -4.693211
          CHANNELS 3 Zrotation Xrotation Yrotation
          JOINT left_humerus
          {
            OFFSET 29.39168 -1.063119 -2.237045
            CHANNELS 3 Zrotation Xrotation Yrotation
            JOINT left_radius
            {
              OFFSET 24.59957 -0.9528479 0.9047498
              CHANNELS 3 Zrotation Xrotation Yrotation
              End Site
              {
                OFFSET 15 -0 -0
              }
            }
          }
        }
      }
    }
  }
}
MOTION
Frames: 9
Frame Time: 0.0416666666667
0 103.5113 0 0.8284473 -0.9970442 -0.0005983057 3.330969 -17.63391 8.026435 -0 36.5521 -0 -5.826431 -15.39037 -3.507323 -6.784089 11.98266 -23.06538 -0 5.213402 -0 5.90043 -18.52195 24.99861 -1.626034 -2.617194 5.728834 1.935777 10.45597 -7.497167 1.732143 21.12773 5.833203 2.257455 -25.40615 9.579342 3.842288 -21.82584 11.40771 87.00537 33.98987 -17.43698 -0 0 18.19479 -7.564678 7.678141 3.315873 6.719577 -20.3861 -0.03251191 -93.94505 21.45345 24.61429 0 0 -12.56812 14.69459 16.9144 -3.893193
0.2326143 103.397 1.615153 0.3572003 -0.08819902 -0.0652671 4.057684 -20.50879 8.370162 -0 35.52412 -0 -5.955148 -14.53315 -3.548338 -6.489348 11.94509 -22.69339 -0 5.47806 -0 5.425834 -19.44906 24.58 -1.670804 -2.518065 5.59834 2.056056 10.40405 -7.529736 1.64554 21.08876 6.035066 2.431174 -25.49877 9.564435 4.049118 -21.38468 11.47219 87.02066 34.30973 -17.76392 -0 0 17.48784 -7.731298 7.879384 3.557092 6.704656 -20.52028 -0.1517568 -93.66878 21.55996 24.02161 0 0 -13.29075 14.39815 16.43737 -3.473003
0.4817533 103.0103 3.712136 0.006786907 0.8165889 -0.09439924 4.517642 -24.76973 7.155921 -0 30.44919 -0 -6.182228 -11.82883 -2.996669 -6.331218 12.2053 -20.90581 -0 5.569976 -0 6.17267 -20.23449 23.48762 -1.716794 -2.43494 5.463013 2.176874 10.33183 -7.571093 1.564559 21.03905 6.232948 2.607095 -25.58923 9.554432 4.300091 -20.9382 11.52089 87.00219 34.63943 -18.11898 -0 0 16.83241 -7.834907 8.08685 3.765146 6.708299 -20.62763 -0.2543766 -93.45107 21.7546 23.47752 0 0 -13.95846 14.05368 16.01044 -2.971326
0.7335217 102.4318 6.178962 -0.1921458 1.819886 -0.06186452 4.988402 -28.32934 6.578046 -0 26.21513 -0 -6.10033 -10.09909 -2.589381 -6.310949 12.55516 -19.76523 -0 5.789193 -0 6.96158 -20.89759 22.79511 -1.749731 -2.344941 5.333107 2.295447 10.27687 -7.617831 1.49001 20.9895 6.404379 2.754983 -25.67027 9.53597 4.481884 -20.54085 11.57091 87.0252 34.88518 -18.44039 -0 0 16.21021 -7.98712 8.280553 3.979358 6.700321 -20.73773 -0.3621143 -93.18218 21.84363 22.91455 0 0 -14.60534 13.77495 15.58142 -2.584972
0.971994 101.6335 9.167475 -0.3226636 2.63043 0.0925009 5.343701 -31.63723 5.622094 -0 21.30499 -0 -6.11075 -7.763077 -2.085149 -6.31574 13.22946 -18.37599 -0 6.489589 -0 7.561662 -21.54411 21.81962 -1.778063 -2.256358 5.202488 2.413795 10.22218 -7.670816 1.418325 20.93468 6.565206 2.894125 -25.74273 9.512249 4.655492 -20.15552 11.61687 87.05214 35.10367 -18.76247 -0 0 15.61093 -8.145008 8.478756 4.192972 6.692711 -20.84186 -0.46994 -92.90717 21.9237 22.35412 0 0 -15.2382 13.49197 15.16146 -2.197298
1.182969 100.6863 12.75117 -0.4778165 3.258199 0.4201869 5.734941 -34.33704 4.693606 -0 16.87935 -0 -6.246074 -5.228974 -1.615798 -6.269119 14.1543 -17.04672 -0 7.855053 -0 7.585892 -22.11476 20.62128 -1.799802 -2.166181 5.081946 2.521846 10.18116 -7.724422 1.349189 20.8801 6.70684 3.016543 -25.79075 9.474411 4.797613 -19.80277 11.66215 87.09282 35.2765 -19.05805 -0 0 15.04718 -8.344665 8.680509 4.421535 6.675925 -20.9453 -0.5840175 -92.61213 21.9626 21.80645 0 0 -15.85175 13.21165 14.74461 -1.825005
1.35423 99.68412 17.05618 -0.7212023 3.518169 0.9572313 6.13692 -36.04974 3.658794 -0 13.20928 -0 -6.601918 -2.393927 -1.226056 -6.075467 15.33995 -15.60554 -0 10.29091 -0 6.606867 -22.40285 18.9046 -1.817692 -2.075627 4.971977 2.618167 10.15138 -7.777172 1.281255 20.82644 6.832191 3.126825 -25.81059 9.420626 4.923387 -19.47385 11.70615 87.13596 35.41772 -19.3313 -0 0 14.51745 -8.582781 8.891571 4.667599 6.650048 -21.04502 -0.7049588 -92.30966 21.98667 21.28159 0 0 -16.44258 12.90933 14.33212 -1.43013
1.487508 98.80424 22.15474 -1.123574 3.408884 1.67617 6.656489 -36.3034 2.831426 -0 11.10706 -0 -7.104276 0.1589927 -1.060245 -5.644554 16.53125 -14.16167 -0 14.15723 -0 4.356486 -21.97916 16.6177 -1.832539 -1.984502 4.879191 2.696213 10.13788 -7.824522 1.214415 20.77805 6.937674 3.222918 -25.79296 9.346514 5.029186 -19.17632 11.74962 87.17856 35.52468 -19.56822 -0 0 14.03244 -8.872622 9.111393 4.937077 6.610487 -21.13959 -0.8346244 -92.00479 21.99697 20.79586 0 0 -16.99624 12.57701 13.92548 -1.002953
1.598557 98.28214 28.0122 -1.7106 2.997939 2.432106 7.381481 -34.65338 2.605171 -0 11.1294 -0 -7.570999 1.618137 -1.299056 -4.908096 17.19882 -12.80441 -0 19.95095 -0 0.9272449 -20.16198 13.91084 -1.846257 -1.892797 4.808523 2.751204 10.14264 -7.86222 1.148086 20.73884 7.021533 3.30525 -25.73023 9.247957 5.119559 -18.9115 11.79293 87.21152 35.60132 -19.75906 -0 0 13.60042 -9.222109 9.341672 5.235436 6.552961 -21.22459 -0.9744915 -91.70854 22.00752 20.36746 0 0 -17.4956 12.19674 13.52654 -0.5185241
